<svg xmlns="http://www.w3.org/2000/svg" viewBox="0 0 64 64" fill="none">
  <rect width="64" height="64" rx="14" fill="#003399"/>
  <g transform="translate(12, 14)">
    <!-- Livro aberto -->
    <path d="M20 4C14 4 8 6 4 8v28c4-2 10-4 16-4s12 2 16 4V8c-4-2-10-4-16-4z" fill="#ffffff" opacity="0.15"/>
    <path d="M20 4C14 4 8 6 4 8v28c4-2 10-4 16-4" stroke="#ffffff" stroke-width="2.5" stroke-linecap="round" stroke-linejoin="round" fill="none"/>
    <path d="M20 4c6 0 12 2 16 4v28c-4-2-10-4-16-4" stroke="#ffffff" stroke-width="2.5" stroke-linecap="round" stroke-linejoin="round" fill="none"/>
    <path d="M20 4v28" stroke="#ffffff" stroke-width="2" stroke-linecap="round" opacity="0.6"/>
    <!-- Linhas de texto -->
    <line x1="9" y1="14" x2="16" y2="13" stroke="#ffffff" stroke-width="1.5" stroke-linecap="round" opacity="0.5"/>
    <line x1="9" y1="19" x2="16" y2="18" stroke="#ffffff" stroke-width="1.5" stroke-linecap="round" opacity="0.5"/>
    <line x1="24" y1="13" x2="31" y2="14" stroke="#ffffff" stroke-width="1.5" stroke-linecap="round" opacity="0.5"/>
    <line x1="24" y1="18" x2="31" y2="19" stroke="#ffffff" stroke-width="1.5" stroke-linecap="round" opacity="0.5"/>
  </g>
</svg>
